<?xml version="1.0" standalone="no"?>
<!DOCTYPE svg PUBLIC "-//W3C//DTD SVG 20010904//EN"
 "http://www.w3.org/TR/2001/REC-SVG-20010904/DTD/svg10.dtd">
<svg version="1.0" xmlns="http://www.w3.org/2000/svg"
 width="500.000000pt" height="500.000000pt" viewBox="0 0 500.000000 500.000000"
 preserveAspectRatio="xMidYMid meet">
<metadata>
Created by potrace 1.14, written by Peter Selinger 2001-2017
</metadata>
<g transform="translate(0.000000,500.000000) scale(0.100000,-0.100000)"
fill="#000000" stroke="none">
<path d="M2703 4239 c-170 -42 -311 -162 -392 -333 -29 -61 -39 -91 -45 -129
-1 -9 -5 -19 -8 -22 -3 -3 -39 27 -79 68 -41 40 -103 89 -139 109 -257 142
-554 91 -711 -122 -43 -59 -65 -125 -76 -233 -6 -61 -2 -56 -89 -102 -59 -30
-129 -107 -169 -183 -77 -148 -65 -331 31 -478 52 -78 181 -203 210 -204 6 0
17 -7 24 -15 7 -8 16 -12 21 -9 5 3 9 1 9 -3 0 -5 24 -17 53 -27 71 -25 75
-32 41 -58 -89 -70 -173 -172 -213 -260 -67 -149 -63 -327 13 -473 41 -81 186
-198 258 -209 7 -1 18 -4 23 -8 6 -3 34 -9 63 -13 36 -5 55 -12 59 -24 30 -96
118 -202 213 -257 107 -61 262 -78 385 -40 46 14 134 57 164 81 47 36 144 139
169 179 36 58 40 49 36 -78 -6 -177 -40 -359 -95 -508 -32 -88 -31 -108 6
-128 28 -15 136 -17 220 -5 28 3 63 8 79 10 15 3 34 10 42 16 8 6 14 8 14 5 0
-4 6 -1 14 6 8 7 12 16 10 20 -2 3 2 8 8 10 23 8 13 671 -11 742 -4 11 -4 39
-1 61 4 32 7 37 15 24 12 -19 187 -140 194 -134 2 3 9 1 15 -4 57 -44 298 -62
391 -28 214 78 321 225 328 452 2 44 5 51 37 72 64 43 130 107 165 160 19 29
32 53 29 53 -4 0 -2 6 4 13 28 33 45 190 29 257 -2 8 -7 32 -12 53 -4 20 -11
40 -16 43 -5 3 -9 11 -9 19 0 27 -69 131 -122 182 -53 52 -121 103 -138 103
-4 0 -10 4 -12 8 -4 11 -115 55 -176 72 l-44 11 50 53 c84 89 138 184 166 293
50 195 2 386 -130 518 -63 63 -194 115 -302 120 -47 2 -58 6 -71 26 -46 75
-70 108 -108 145 -24 23 -43 40 -43 37 0 -2 -12 5 -26 16 -23 18 -89 44 -145
57 -55 12 -138 10 -206 -7z"/>
</g>
</svg>
